<?xml version='1.0' encoding='utf8'?>
<svg class="toyplot-canvas-Canvas" xmlns:toyplot="http://www.sandia.gov/toyplot" xmlns:xlink="http://www.w3.org/1999/xlink" xmlns="http://www.w3.org/2000/svg" width="1000.0px" height="660.0px" viewBox="0 0 1000.0 660.0" preserveAspectRatio="xMidYMid meet" style="background-color:transparent;border-color:#292724;border-style:none;border-width:1.0;fill:rgb(16.1%,15.3%,14.1%);fill-opacity:1.0;font-family:Helvetica;font-size:12px;opacity:1.0;stroke:rgb(16.1%,15.3%,14.1%);stroke-opacity:1.0;stroke-width:1.0" id="t09211921bac844f0ae6c6af2b1990d5f"><g class="toyplot-coordinates-Cartesian" id="tc24e860ec18d448fa76fdecc6d11a0d5"><clipPath id="tca3144f774d84f5484fab1b9919c95fa"><rect x="30.0" y="30.0" width="940.0" height="600.0" /></clipPath><g clip-path="url(#tca3144f774d84f5484fab1b9919c95fa)"><g class="toytree-mark-Toytree" id="t0fb5a460666e42fdad62b3af188629dd"><g class="toytree-Edges" style="fill:none;stroke:rgb(14.9%,14.9%,14.9%);stroke-linecap:round;stroke-opacity:1;stroke-width:2"><path d="M 51.5 260.9 L 51.5 138.9 L 53.2 138.9" id="66,65" /><path d="M 51.5 260.9 L 51.5 382.8 L 146.2 382.8" id="66,64" /><path d="M 53.2 138.9 L 53.2 76.3 L 210.3 76.3" id="65,63" /><path d="M 53.2 138.9 L 53.2 201.6 L 118.9 201.6" id="65,62" /><path d="M 146.2 382.8 L 146.2 427.6 L 176.7 427.6" id="64,61" /><path d="M 210.3 76.3 L 210.3 90.5 L 251.7 90.5" id="63,60" /><path d="M 118.9 201.6 L 118.9 154.4 L 130.7 154.4" id="62,59" /><path d="M 118.9 201.6 L 118.9 248.8 L 120.4 248.8" id="62,58" /><path d="M 176.7 427.6 L 176.7 375.7 L 295.0 375.7" id="61,57" /><path d="M 176.7 427.6 L 176.7 479.4 L 223.8 479.4" id="61,56" /><path d="M 251.7 90.5 L 251.7 102.7 L 276.1 102.7" id="60,55" /><path d="M 130.7 154.4 L 130.7 135.1 L 234.7 135.1" id="59,54" /><path d="M 130.7 154.4 L 130.7 173.7 L 465.3 173.7" id="59,53" /><path d="M 120.4 248.8 L 120.4 273.2 L 132.7 273.2" id="58,52" /><path d="M 295.0 375.7 L 295.0 397.0 L 333.4 397.0" id="57,51" /><path d="M 223.8 479.4 L 223.8 507.1 L 397.6 507.1" id="56,50" /><path d="M 465.3 173.7 L 465.3 187.9 L 485.5 187.9" id="53,49" /><path d="M 132.7 273.2 L 132.7 248.8 L 269.3 248.8" id="52,48" /><path d="M 132.7 273.2 L 132.7 297.5 L 154.7 297.5" id="52,47" /><path d="M 333.4 397.0 L 333.4 378.7 L 483.8 378.7" id="51,46" /><path d="M 333.4 397.0 L 333.4 415.3 L 477.5 415.3" id="51,45" /><path d="M 397.6 507.1 L 397.6 476.2 L 489.1 476.2" id="50,44" /><path d="M 397.6 507.1 L 397.6 538.1 L 402.1 538.1" id="50,43" /><path d="M 485.5 187.9 L 485.5 200.1 L 521.4 200.1" id="49,42" /><path d="M 154.7 297.5 L 154.7 281.3 L 281.0 281.3" id="47,41" /><path d="M 154.7 297.5 L 154.7 313.8 L 302.1 313.8" id="47,40" /><path d="M 477.5 415.3 L 477.5 427.4 L 494.3 427.4" id="45,39" /><path d="M 402.1 538.1 L 402.1 512.7 L 471.0 512.7" id="43,38" /><path d="M 402.1 538.1 L 402.1 563.4 L 470.0 563.4" id="43,37" /><path d="M 471.0 512.7 L 471.0 524.9 L 494.1 524.9" id="38,36" /><path d="M 470.0 563.4 L 470.0 577.6 L 484.8 577.6" id="37,35" /><path d="M 484.8 577.6 L 484.8 589.8 L 492.6 589.8" id="35,34" /><path d="M 210.3 76.3 L 210.3 62.1 L 215.7 62.1" id="63,33" /><path d="M 251.7 90.5 L 251.7 78.3 L 326.8 78.3" id="60,32" /><path d="M 276.1 102.7 L 276.1 94.5 L 316.7 94.5" id="55,31" /><path d="M 276.1 102.7 L 276.1 110.8 L 298.4 110.8" id="55,30" /><path d="M 234.7 135.1 L 234.7 127.0 L 395.5 127.0" id="54,29" /><path d="M 234.7 135.1 L 234.7 143.3 L 314.6 143.3" id="54,28" /><path d="M 465.3 173.7 L 465.3 159.5 L 518.2 159.5" id="53,27" /><path d="M 485.5 187.9 L 485.5 175.7 L 485.7 175.7" id="49,26" /><path d="M 521.4 200.1 L 521.4 192.0 L 536.2 192.0" id="42,25" /><path d="M 521.4 200.1 L 521.4 208.2 L 583.5 208.2" id="42,24" /><path d="M 120.4 248.8 L 120.4 224.4 L 347.1 224.4" id="58,23" /><path d="M 269.3 248.8 L 269.3 240.7 L 281.0 240.7" id="48,22" /><path d="M 269.3 248.8 L 269.3 256.9 L 274.0 256.9" id="48,21" /><path d="M 281.0 281.3 L 281.0 273.2 L 400.8 273.2" id="41,20" /><path d="M 281.0 281.3 L 281.0 289.4 L 347.4 289.4" id="41,19" /><path d="M 302.1 313.8 L 302.1 305.6 L 311.0 305.6" id="40,18" /><path d="M 302.1 313.8 L 302.1 321.9 L 348.8 321.9" id="40,17" /><path d="M 146.2 382.8 L 146.2 338.1 L 499.1 338.1" id="64,16" /><path d="M 295.0 375.7 L 295.0 354.4 L 547.5 354.4" id="57,15" /><path d="M 483.8 378.7 L 483.8 370.6 L 556.2 370.6" id="46,14" /><path d="M 483.8 378.7 L 483.8 386.8 L 523.6 386.8" id="46,13" /><path d="M 477.5 415.3 L 477.5 403.1 L 715.7 403.1" id="45,12" /><path d="M 494.3 427.4 L 494.3 419.3 L 613.0 419.3" id="39,11" /><path d="M 494.3 427.4 L 494.3 435.6 L 598.6 435.6" id="39,10" /><path d="M 223.8 479.4 L 223.8 451.8 L 398.0 451.8" id="56,9" /><path d="M 489.1 476.2 L 489.1 468.0 L 554.3 468.0" id="44,8" /><path d="M 489.1 476.2 L 489.1 484.3 L 544.8 484.3" id="44,7" /><path d="M 471.0 512.7 L 471.0 500.5 L 484.4 500.5" id="38,6" /><path d="M 494.1 524.9 L 494.1 516.7 L 500.5 516.7" id="36,5" /><path d="M 494.1 524.9 L 494.1 533.0 L 532.3 533.0" id="36,4" /><path d="M 470.0 563.4 L 470.0 549.2 L 502.9 549.2" id="37,3" /><path d="M 484.8 577.6 L 484.8 565.5 L 535.7 565.5" id="35,2" /><path d="M 492.6 589.8 L 492.6 581.7 L 495.3 581.7" id="34,1" /><path d="M 492.6 589.8 L 492.6 597.9 L 537.3 597.9" id="34,0" /></g><g class="toytree-AlignEdges" style="stroke:rgb(66.3%,66.3%,66.3%);stroke-dasharray:2, 4;stroke-linecap:round;stroke-opacity:1.0;stroke-width:2"><path d="M 715.7 597.9 L 537.3 597.9" /><path d="M 715.7 581.7 L 495.3 581.7" /><path d="M 715.7 565.5 L 535.7 565.5" /><path d="M 715.7 549.2 L 502.9 549.2" /><path d="M 715.7 533.0 L 532.3 533.0" /><path d="M 715.7 516.7 L 500.5 516.7" /><path d="M 715.7 500.5 L 484.4 500.5" /><path d="M 715.7 484.3 L 544.8 484.3" /><path d="M 715.7 468.0 L 554.3 468.0" /><path d="M 715.7 451.8 L 398.0 451.8" /><path d="M 715.7 435.6 L 598.6 435.6" /><path d="M 715.7 419.3 L 613.0 419.3" /><path d="M 715.7 403.1 L 715.7 403.1" /><path d="M 715.7 386.8 L 523.6 386.8" /><path d="M 715.7 370.6 L 556.2 370.6" /><path d="M 715.7 354.4 L 547.5 354.4" /><path d="M 715.7 338.1 L 499.1 338.1" /><path d="M 715.7 321.9 L 348.8 321.9" /><path d="M 715.7 305.6 L 311.0 305.6" /><path d="M 715.7 289.4 L 347.4 289.4" /><path d="M 715.7 273.2 L 400.8 273.2" /><path d="M 715.7 256.9 L 274.0 256.9" /><path d="M 715.7 240.7 L 281.0 240.7" /><path d="M 715.7 224.4 L 347.1 224.4" /><path d="M 715.7 208.2 L 583.5 208.2" /><path d="M 715.7 192.0 L 536.2 192.0" /><path d="M 715.7 175.7 L 485.7 175.7" /><path d="M 715.7 159.5 L 518.2 159.5" /><path d="M 715.7 143.3 L 314.6 143.3" /><path d="M 715.7 127.0 L 395.5 127.0" /><path d="M 715.7 110.8 L 298.4 110.8" /><path d="M 715.7 94.5 L 316.7 94.5" /><path d="M 715.7 78.3 L 326.8 78.3" /><path d="M 715.7 62.1 L 215.7 62.1" /></g><g class="toytree-TipLabels" style="fill:rgb(14.9%,14.9%,14.9%);fill-opacity:1.0;font-family:helvetica;font-size:11px;font-weight:normal;stroke:none;white-space:pre"><g transform="translate(715.67,597.94)rotate(0)"><a href="https://glottolog.org/resource/languoid/id/utee1244#############"><text x="15.00" y="2.81" style="" fill="#0000ff">SouthernUte - Ute [utee1244#############]</text></a></g><g transform="translate(715.67,581.70)rotate(0)"><a href="https://glottolog.org/resource/languoid/id/sout2969#############"><text x="15.00" y="2.81" style="" fill="#0000ff">SouthernPaiute - Southern Paiute [sout2969#############]</text></a></g><g transform="translate(715.67,565.46)rotate(0)"><a href="https://glottolog.org/resource/languoid/id/chem1251#############"><text x="15.00" y="2.81" style="" fill="#0000ff">Chemehuevi - Chemehuevi [chem1251#############]</text></a></g><g transform="translate(715.67,549.23)rotate(0)"><a href="https://glottolog.org/resource/languoid/id/kawa1283#############"><text x="15.00" y="2.81" style="" fill="#0000ff">Kawaiisu - Kawaiisu [kawa1283#############]</text></a></g><g transform="translate(715.67,532.99)rotate(0)"><a href="https://glottolog.org/resource/languoid/id/coma1245#############"><text x="15.00" y="2.81" style="" fill="#0000ff">Comanche - Comanche [coma1245#############]</text></a></g><g transform="translate(715.67,516.75)rotate(0)"><a href="https://glottolog.org/resource/languoid/id/gosi1242#############"><text x="15.00" y="2.81" style="" fill="#0000ff">Shoshoni_GosiuteDialect - Gosiute [gosi1242#############]</text></a></g><g transform="translate(715.67,500.51)rotate(0)"><a href="https://glottolog.org/resource/languoid/id/pana1305#############"><text x="15.00" y="2.81" style="" fill="#0000ff">Pannamint - Panamint [pana1305#############]</text></a></g><g transform="translate(715.67,484.27)rotate(0)"><a href="https://glottolog.org/resource/languoid/id/nort2954#############"><text x="15.00" y="2.81" style="" fill="#0000ff">NorthernPaiute - Northern Paiute [nort2954#############]</text></a></g><g transform="translate(715.67,468.03)rotate(0)"><a href="https://glottolog.org/resource/languoid/id/mono1275#############"><text x="15.00" y="2.81" style="" fill="#0000ff">Mono - Mono (USA) [mono1275#############]</text></a></g><g transform="translate(715.67,451.79)rotate(0)"><a href="https://glottolog.org/resource/languoid/id/tuba1278#############"><text x="15.00" y="2.81" style="" fill="#0000ff">Tubatulabel - Tübatulabal [tuba1278#############]</text></a></g><g transform="translate(715.67,435.55)rotate(0)"><a href="https://glottolog.org/resource/languoid/id/cahu1264#############"><text x="15.00" y="2.81" style="" fill="#0000ff">Cahuilla - Cahuilla [cahu1264#############]</text></a></g><g transform="translate(715.67,419.31)rotate(0)"><a href="https://glottolog.org/resource/languoid/id/cupe1243#############"><text x="15.00" y="2.81" style="" fill="#0000ff">Cupeno - Cupeño [cupe1243#############]</text></a></g><g transform="translate(715.67,403.08)rotate(0)"><a href="https://glottolog.org/resource/languoid/id/luis1253#############"><text x="15.00" y="2.81" style="" fill="#0000ff">Luiseno - Luiseno-Juaneño [luis1253#############]</text></a></g><g transform="translate(715.67,386.84)rotate(0)"><a href="https://glottolog.org/resource/languoid/id/serr1255#############"><text x="15.00" y="2.81" style="" fill="#0000ff">Kitanemuk - Serrano [serr1255#############]</text></a></g><g transform="translate(715.67,370.60)rotate(0)"><a href="https://glottolog.org/resource/languoid/id/serr1255#############"><text x="15.00" y="2.81" style="" fill="#0000ff">Serrano - Serrano [serr1255#############]</text></a></g><g transform="translate(715.67,354.36)rotate(0)"><a href="https://glottolog.org/resource/languoid/id/tong1329#############"><text x="15.00" y="2.81" style="" fill="#0000ff">Gabrielino - Tongva [tong1329#############]</text></a></g><g transform="translate(715.67,338.12)rotate(0)"><a href="https://glottolog.org/resource/languoid/id/hopi1249#############"><text x="15.00" y="2.81" style="" fill="#0000ff">Hopi - Hopi [hopi1249#############]</text></a></g><g transform="translate(715.67,321.88)rotate(0)"><a href="https://glottolog.org/resource/languoid/id/cent2131#############"><text x="15.00" y="2.81" style="" fill="#0000ff">Tarahumara - Central Tarahumara [cent2131#############]</text></a></g><g transform="translate(715.67,305.64)rotate(0)"><a href="https://glottolog.org/resource/languoid/id/huar1255#############"><text x="15.00" y="2.81" style="" fill="#0000ff">Guarijio - Huarijio [huar1255#############]</text></a></g><g transform="translate(715.67,289.40)rotate(0)"><a href="https://glottolog.org/resource/languoid/id/eude1234#############"><text x="15.00" y="2.81" style="" fill="#0000ff">Eudeve - Eudeve [eude1234#############]</text></a></g><g transform="translate(715.67,273.16)rotate(0)"><a href="https://glottolog.org/resource/languoid/id/opat1246#############"><text x="15.00" y="2.81" style="" fill="#0000ff">Opata - Teguima [opat1246#############]</text></a></g><g transform="translate(715.67,256.92)rotate(0)"><a href="https://glottolog.org/resource/languoid/id/yaqu1251#############"><text x="15.00" y="2.81" style="" fill="#0000ff">Yaqui - Yaqui [yaqu1251#############]</text></a></g><g transform="translate(715.67,240.69)rotate(0)"><a href="https://glottolog.org/resource/languoid/id/mayo1264#############"><text x="15.00" y="2.81" style="" fill="#0000ff">Mayo - Mayo [mayo1264#############]</text></a></g><g transform="translate(715.67,224.45)rotate(0)"><a href="https://glottolog.org/resource/languoid/id/tuba1279#############"><text x="15.00" y="2.81" style="" fill="#0000ff">Tubar - Tubar [tuba1279#############]</text></a></g><g transform="translate(715.67,208.21)rotate(0)"><a href="https://glottolog.org/resource/languoid/id/high1278#############"><text x="15.00" y="2.81" style="" fill="#0000ff">Aztec_Zacapoaxtla - Highland Puebla Nahuatl [high1278#############]</text></a></g><g transform="translate(715.67,191.97)rotate(0)"><a href="https://glottolog.org/resource/languoid/id/tete1251#############"><text x="15.00" y="2.81" style="" fill="#0000ff">Aztec_Tetelcingo - Tetelcingo Nahuatl [tete1251#############]</text></a></g><g transform="translate(715.67,175.73)rotate(0)"><a href="https://glottolog.org/resource/languoid/id/clas1250#############"><text x="15.00" y="2.81" style="" fill="#0000ff">ClassicalAztec - Classical Nahuatl [clas1250#############]</text></a></g><g transform="translate(715.67,159.49)rotate(0)"><a href="https://glottolog.org/resource/languoid/id/pipi1250#############"><text x="15.00" y="2.81" style="" fill="#0000ff">Pipil - Pipil [pipi1250#############]</text></a></g><g transform="translate(715.67,143.25)rotate(0)"><a href="https://glottolog.org/resource/languoid/id/huic1243#############"><text x="15.00" y="2.81" style="" fill="#0000ff">Huichol - Huichol [huic1243#############]</text></a></g><g transform="translate(715.67,127.01)rotate(0)"><a href="https://glottolog.org/resource/languoid/id/elna1235#############"><text x="15.00" y="2.81" style="" fill="#0000ff">Cora - El Nayar Cora [elna1235#############]</text></a></g><g transform="translate(715.67,110.77)rotate(0)"><a href="https://glottolog.org/resource/languoid/id/toho1245#############"><text x="15.00" y="2.81" style="" fill="#0000ff">PapagoPima - Tohono O'odham [toho1245#############]</text></a></g><g transform="translate(715.67,94.54)rotate(0)"><a href="https://glottolog.org/resource/languoid/id/pima1248#############"><text x="15.00" y="2.81" style="" fill="#0000ff">PimadeOnavas - Pima Bajo [pima1248#############]</text></a></g><g transform="translate(715.67,78.30)rotate(0)"><a href="https://glottolog.org/resource/languoid/id/sout2977#############"><text x="15.00" y="2.81" style="" fill="#0000ff">SoutheasternTepehuan - Southwestern Tepehuan [sout2977#############]</text></a></g><g transform="translate(715.67,62.06)rotate(0)"><a href="https://glottolog.org/resource/languoid/id/nort2959#############"><text x="15.00" y="2.81" style="" fill="#0000ff">NorthernTepehuan - Northern Tepehuan [nort2959#############]</text></a></g></g></g></g><g class="toyplot-coordinates-Axis" id="tf57b974cea5e4eddb944249be0f5166b" transform="translate(50.0,610.0)translate(0,20.0)"><line x1="1.4759905536603966" y1="0" x2="665.6717397008659" y2="0" style="" /><g><line x1="665.6717397008659" y1="0" x2="665.6717397008659" y2="-5" style="" /><line x1="591.872212017843" y1="0" x2="591.872212017843" y2="-5" style="" /><line x1="518.0726843348202" y1="0" x2="518.0726843348202" y2="-5" style="" /><line x1="444.2731566517974" y1="0" x2="444.2731566517974" y2="-5" style="" /><line x1="370.47362896877456" y1="0" x2="370.47362896877456" y2="-5" style="" /><line x1="296.6741012857517" y1="0" x2="296.6741012857517" y2="-5" style="" /><line x1="222.8745736027289" y1="0" x2="222.8745736027289" y2="-5" style="" /><line x1="149.0750459197061" y1="0" x2="149.0750459197061" y2="-5" style="" /><line x1="75.27551823668328" y1="0" x2="75.27551823668328" y2="-5" style="" /><line x1="1.4759905536604732" y1="0" x2="1.4759905536604732" y2="-5" style="" /></g><g><g transform="translate(665.6717397008659,6)"><text x="-6.95" y="8.555" style="fill:rgb(16.1%,15.3%,14.1%);fill-opacity:1.0;font-family:helvetica;font-size:10.0px;font-weight:normal;stroke:none;vertical-align:baseline;white-space:pre">0.0</text></g><g transform="translate(591.872212017843,6)"><text x="-6.95" y="8.555" style="fill:rgb(16.1%,15.3%,14.1%);fill-opacity:1.0;font-family:helvetica;font-size:10.0px;font-weight:normal;stroke:none;vertical-align:baseline;white-space:pre">0.9</text></g><g transform="translate(518.0726843348202,6)"><text x="-6.95" y="8.555" style="fill:rgb(16.1%,15.3%,14.1%);fill-opacity:1.0;font-family:helvetica;font-size:10.0px;font-weight:normal;stroke:none;vertical-align:baseline;white-space:pre">1.7</text></g><g transform="translate(444.2731566517974,6)"><text x="-6.95" y="8.555" style="fill:rgb(16.1%,15.3%,14.1%);fill-opacity:1.0;font-family:helvetica;font-size:10.0px;font-weight:normal;stroke:none;vertical-align:baseline;white-space:pre">2.6</text></g><g transform="translate(370.47362896877456,6)"><text x="-6.95" y="8.555" style="fill:rgb(16.1%,15.3%,14.1%);fill-opacity:1.0;font-family:helvetica;font-size:10.0px;font-weight:normal;stroke:none;vertical-align:baseline;white-space:pre">3.4</text></g><g transform="translate(296.6741012857517,6)"><text x="-6.95" y="8.555" style="fill:rgb(16.1%,15.3%,14.1%);fill-opacity:1.0;font-family:helvetica;font-size:10.0px;font-weight:normal;stroke:none;vertical-align:baseline;white-space:pre">4.3</text></g><g transform="translate(222.8745736027289,6)"><text x="-6.95" y="8.555" style="fill:rgb(16.1%,15.3%,14.1%);fill-opacity:1.0;font-family:helvetica;font-size:10.0px;font-weight:normal;stroke:none;vertical-align:baseline;white-space:pre">5.1</text></g><g transform="translate(149.0750459197061,6)"><text x="-6.95" y="8.555" style="fill:rgb(16.1%,15.3%,14.1%);fill-opacity:1.0;font-family:helvetica;font-size:10.0px;font-weight:normal;stroke:none;vertical-align:baseline;white-space:pre">6.0</text></g><g transform="translate(75.27551823668328,6)"><text x="-6.95" y="8.555" style="fill:rgb(16.1%,15.3%,14.1%);fill-opacity:1.0;font-family:helvetica;font-size:10.0px;font-weight:normal;stroke:none;vertical-align:baseline;white-space:pre">6.8</text></g><g transform="translate(1.4759905536604732,6)"><text x="-6.95" y="8.555" style="fill:rgb(16.1%,15.3%,14.1%);fill-opacity:1.0;font-family:helvetica;font-size:10.0px;font-weight:normal;stroke:none;vertical-align:baseline;white-space:pre">7.7</text></g></g><g class="toyplot-coordinates-Axis-coordinates" style="visibility:hidden" transform=""><line x1="0" x2="0" y1="-3.0" y2="4.5" style="stroke:rgb(43.9%,50.2%,56.5%);stroke-opacity:1.0;stroke-width:1.0" /><text x="0" y="-6" style="alignment-baseline:alphabetic;fill:rgb(43.9%,50.2%,56.5%);fill-opacity:1.0;font-size:10px;font-weight:normal;stroke:none;text-anchor:middle" /></g></g><g transform="translate(500.0,42.0)"><text x="-312.361" y="-4.823" style="fill:rgb(16.1%,15.3%,14.1%);fill-opacity:1.0;font-family:helvetica;font-size:14.0px;font-weight:bold;stroke:none;vertical-align:baseline;white-space:pre">Summary tree of a Bayesian analysis of the Uto-Aztecan family with branches in substitutions</text></g></g></svg>